# AST/ASF file generated using VICON BodyLanguage
# -----------------------------------------------
:version 1.10
:name VICON
:units
  mass 1.0
  length 0.45
  angle deg
:documentation
   .ast/.asf automatically generated from VICON data using
   VICON BodyBuilder and BodyLanguage model FoxedUp or BRILLIANT.MOD
:root
   order TX TY TZ RX RY RZ
   axis XYZ
   position 0 0 0  
   orientation 0 -0 0 
:bonedata
  begin
     id 1 
     name lhipjoint
     direction 0.500677 -0.737119 0.453848 
     length 2.34727 
     axis 0 -0 0  XYZ
  end
  begin
     id 2 
     name lfemur
     direction 0.34202 -0.939693 0  
     length 7.53653  
     axis 0 -0 20  XYZ
    dof rx ry rz
    limits (-160.0 20.0)
           (-70.0 70.0)
           (-60.0 70.0)
  end
  begin
     id 3 
     name ltibia
     direction 0.34202 -0.939693 0   
     length 6.85572   
     axis 0 -0 20   XYZ
    dof rx
    limits (-10.0 170.0)
  end
  begin
     id 4 
     name lfoot
     direction 0.155313 -0.426718 0.890949   
     length 2.18324   
     axis -90 -1.13533e-015 20   XYZ
    dof rx rz
    limits (-45.0 90.0)
           (-70.0 20.0)
  end
  begin
     id 5 
     name ltoes
     direction 1.53474e-011 -4.21647e-011 1   
     length 1.06748   
     axis -90 -1.13533e-015 20   XYZ
    dof rx
    limits (-90.0 20.0)
  end
  begin
     id 6 
     name rhipjoint
     direction -0.632471 -0.659587 0.406111   
     length 2.62319  
     axis 0 -0 0  XYZ 
  end
  begin
     id 7 
     name rfemur
     direction -0.34202 -0.939693 0   
     length 7.21735   
     axis 0 -0 -20   XYZ
    dof rx ry rz
    limits (-160.0 20.0)
           (-70.0 70.0)
           (-70.0 60.0)
  end
  begin
     id 8 
     name rtibia
     direction -0.34202 -0.939693 0   
     length 7.02558   
     axis 0 -0 -20   XYZ
    dof rx
    limits (-10.0 170.0)
 end
 begin
     id 9 
     name rfoot
     direction -0.16057 -0.441164 0.882945   
     length 2.10014  
     axis -90 1.13533e-015 -20   XYZ
    dof rx rz
    limits (-45.0 90.0)
           (-20.0 70.0)
  end
  begin
     id 10 
     name rtoes
     direction -1.53553e-011 -4.2192e-011 1   
     length 1.02554   
     axis -90 1.13533e-015 -20   XYZ
    dof rx
    limits (-90.0 20.0)
  end
  begin
     id 11 
     name lowerback
     direction 0.0401429 0.998861 -0.0258085   
     length 1.80848   
     axis 0 -0 0   XYZ
    dof rx ry rz
    limits (-20.0 45.0)
           (-30.0 30.0)
           (-30.0 30.0)
  end
  begin
     id 12 
     name upperback
     direction -0.0130978 0.999914 -0.000352645   
     length 1.8116   
     axis 0 -0 0   XYZ
    dof rx ry rz
    limits (-20.0 45.0)
           (-30.0 30.0)
           (-30.0 30.0)
  end
  begin
     id 13 
     name thorax
     direction -0.0300198 0.999453 0.0138573   
     length 1.81778   
     axis 0 -0 0   XYZ
    dof rx ry rz
    limits (-20.0 45.0)
           (-30.0 30.0)
           (-30.0 30.0)
  end
  begin
     id 14 
     name lowerneck
     direction -0.0401726 0.999191 -0.00173647   
     length 2.10594   
     axis 0 -0 0   XYZ
    dof rx ry rz
    limits (-20.0 45.0)
           (-30.0 30.0)
           (-30.0 30.0)
  end
  begin
     id 15 
     name upperneck
     direction 0.0119835 0.998501 0.0534085   
     length 2.07325   
     axis 0 -0 0   XYZ
    dof rx ry rz
    limits (-20.0 45.0)
           (-30.0 30.0)
           (-30.0 30.0)
  end
  begin
     id 16
     name head
     direction 0.00628309 0.999826 0.0175921  
     length 2.15096  
     axis 0 -0 0   XYZ
    dof rx ry rz
    limits (-20.0 45.0)
           (-30.0 30.0)
           (-30.0 30.0)
  end
  begin
     id 17 
     name lclavicle
     direction 0.895501 0.429681 -0.115981  
     length 4.18092  
     axis 0 -0 0   XYZ
    dof ry rz
    limits (-20.0 10.0)
           (0.0 20.0)
  end
  begin
     id 18 
     name lhumerus
     direction 1 -4.48961e-011 -3.38433e-028   
     length 5.77237   
     axis 180 -30 -90   XYZ
    dof rx ry rz
    limits (-60.0 90.0)
           (-90.0 90.0)
           (-90.0 90.0)
  end
  begin
     id 19
     name lradius
     direction 1 -4.4901e-011 1.11983e-026   
     length 2.91878   
     axis 180 -30 -90   XYZ
    dof rx
    limits (-10.0 170.0)
  end
  begin
     id 20
     name lwrist
     direction 1 -4.48934e-011 1.88176e-026   
     length 1.45939   
     axis -1.23311e-014 90 90   XYZ
    dof ry
    limits (-180.0 0.0)
 end
  begin
     id 21 
     name lhand
     direction 1 -4.4895e-011 3.76352e-026   
     length 1.06566   
     axis -2.40147e-014 90 90   XYZ
    dof rx rz
    limits (-90.0 90.0)
           (-45.0 45.0)
  end
  begin
     id 22 
     name lfingers
     direction 1 -4.49005e-011 7.52705e-026   
     length 0.859162   
     axis -4.80295e-014 90 90   XYZ
    dof rx
    limits (0.0 90.0)
  end
  begin
     id 23
     name lthumb
     direction 0.707107 -6.34885e-011 0.707107   
     length 1.23359   
     axis -90 45 -9.86935e-015   XYZ
    dof rx rz
    limits (-45.0 45.0)
           (-45.0 45.0)
  end
  begin
     id 24 
     name rclavicle
     direction -0.91006 0.40451 -0.0903492   
     length 4.23293  
     axis 0 -0 0   XYZ 
    dof ry rz
    limits (-10.0 20.0)
           (-20.0 0.0)
  end
  begin
     id 25 
     name rhumerus
     direction -1 -4.4897e-011 1.7415e-027  
     length 5.49854   
     axis 180 30 90   XYZ
    dof rx ry rz
    limits (-90.0 60.0)
           (-90.0 90.0)
           (-90.0 90.0)
  end
  begin
     id 26 
     name rradius
     direction -1 -4.48963e-011 1.21259e-026   
     length 3.1186   
     axis 180 30 90   XYZ
    dof rx
    limits (-10.0 170.0)
  end
  begin
     id 27 
     name rwrist
     direction -1 -4.48967e-011 1.88176e-026   
     length 1.5593   
     axis -1.23311e-014 -90 -90   XYZ
    dof ry
    limits (-180.0 0.0)
  end
  begin
     id 28
     name rhand
     direction -1 -4.4895e-011 3.76352e-026   
     length 0.71207   
     axis -2.40147e-014 -90 -90   XYZ
    dof rx rz
    limits (-90.0 90.0)
           (-45.0 45.0)
  end
  begin
     id 29
     name rfingers
     direction -1 -4.49005e-011 7.52705e-026   
     length 0.574089   
     axis -4.80295e-014 -90 -90   XYZ
    dof rx
    limits (0.0 90.0)
  end
  begin
     id 30
     name rthumb
     direction -0.707107 -6.34982e-011 0.707107   
     length 0.824281   
     axis -90 -45 9.86935e-015   XYZ
    dof rx rz
    limits (-45.0 45.0)
           (-45.0 45.0)
  end
:hierarchy
  begin
    root lhipjoint rhipjoint lowerback
    lhipjoint lfemur
    lfemur ltibia
    ltibia lfoot
    lfoot ltoes
    rhipjoint rfemur
    rfemur rtibia
    rtibia rfoot
    rfoot rtoes
    lowerback upperback
    upperback thorax
    thorax lowerneck lclavicle rclavicle
    lowerneck upperneck
    upperneck head
    lclavicle lhumerus
    lhumerus lradius
    lradius lwrist
    lwrist lhand lthumb
    lhand lfingers
    rclavicle rhumerus
    rhumerus rradius
    rradius rwrist
    rwrist rhand rthumb
    rhand rfingers
  end

#!OML:ASF C:\ViconDB\ViconDB\414\Spring2016\042216\male.ASF
:FULLY-SPECIFIED
:DEGREES
95
root 1.71549 17.6131 9.19981 -150.468 72.4634 -167.63
lowerback 6.83175 -2.79603 5.72932
upperback 1.10382 -3.26331 0.0259693
thorax -3.00442 -1.66728 -2.87335
lowerneck -0.203886 10.3145 -3.40117
upperneck -24.2627 13.8981 -6.73586
head -7.1874 7.99265 -2.50135
rclavicle -2.40529e-014 -2.98177e-014
rhumerus -43.6181 -0.296903 -75.8728
rradius 33.3603
rwrist 19.5137
rhand 18.5646 -17.9399
rfingers 7.12502
rthumb 43.1956 -42.1163
lclavicle -2.40529e-014 -2.98177e-014
lhumerus -52.4357 13.3797 68.6035
lradius 38.995
lwrist 0.362381
lhand -7.56634 14.1152
lfingers 7.12502
lthumb 18.3261 43.2719
rfemur -24.4497 4.22945 17.3845
rtibia 18.2345
rfoot -13.1608 -3.14393
rtoes -8.99393
lfemur -31.2452 -2.78004 -10.4876
ltibia 29.4689
lfoot -21.3637 14.8624
ltoes -15.5789
96
root 1.67461 17.562 9.19595 -149.013 72.5555 -166.9
lowerback 7.21158 -2.81284 5.76712
upperback 1.14477 -3.25125 0.114781
thorax -3.16984 -1.66234 -2.78763
lowerneck -0.0185897 10.2399 -3.74554
upperneck -25.5714 13.8363 -6.83885
head -7.68041 8.06188 -2.5754
rclavicle 2.62396e-014 3.26007e-014
rhumerus -44.1655 0.692822 -75.8908
rradius 34.2138
rwrist 18.1935
rhand 18.5365 -18.2617
rfingers 7.12502
rthumb 43.1694 -42.4476
lclavicle 2.62396e-014 3.26007e-014
lhumerus -53.3256 13.3855 68.0937
lradius 38.9461
lwrist 0.660624
lhand -7.74206 14.0819
lfingers 7.12502
lthumb 18.157 43.2544
rfemur -26.724 3.28584 17.7257
rtibia 20.5932
rfoot -13.8317 -2.25818
rtoes -9.42763
lfemur -33.0487 -2.10287 -10.4574
ltibia 31.1291
lfoot -22.0794 14.7079
ltoes -15.5859
97
root 1.63611 17.5054 9.18363 -147.696 72.721 -166.314
lowerback 7.41419 -2.77757 5.96327
upperback 1.24896 -3.17741 0.0365079
thorax -3.18279 -1.62482 -2.98049
lowerneck 0.140925 10.0659 -4.06612
upperneck -26.8993 13.6771 -6.80241
head -8.19492 8.07646 -2.6063
rclavicle -4.19436e-014 2.3059e-014
rhumerus -44.6353 1.65283 -76.1472
rradius 34.9024
rwrist 16.4121
rhand 18.4201 -18.5086
rfingers 7.12502
rthumb 43.0605 -42.7331
lclavicle -4.19436e-014 2.3059e-014
lhumerus -53.9305 13.232 67.5233
lradius 38.7317
lwrist 0.95598
lhand -7.7825 14.4873
lfingers 7.12502
lthumb 18.1181 43.6634
rfemur -28.9686 2.16491 18.0348
rtibia 22.949
rfoot -14.5875 -1.1451
rtoes -9.75317
lfemur -34.8698 -1.47957 -10.5356
ltibia 32.9539
lfoot -22.968 14.6052
ltoes -15.2345
98
root 1.59069 17.4382 9.16859 -146.673 72.8783 -165.977
lowerback 7.78887 -2.78425 6.09281
upperback 1.29502 -3.14893 -0.0118384
thorax -3.35084 -1.61406 -3.09132
lowerneck 0.360407 9.97692 -4.18937
upperneck -28.0887 13.5642 -7.0804
head -8.63918 8.11989 -2.76573
rclavicle 7.95139e-014 -4.77083e-015
rhumerus -44.9445 2.02578 -75.9947
rradius 35.1548
rwrist 16.0878
rhand 18.615 -17.8557
rfingers 7.12502
rthumb 43.2428 -42.0153
lclavicle 7.95139e-014 -4.77083e-015
lhumerus -54.609 13.3665 66.8813
lradius 38.3075
lwrist 0.442401
lhand -7.70354 14.5268
lfingers 7.12502
lthumb 18.1941 43.6959
rfemur -31.2073 1.21549 18.2191
rtibia 25.4143
rfoot -15.4168 -0.218333
rtoes -10.0301
lfemur -36.7246 -0.752902 -10.784
ltibia 34.8676
lfoot -23.8396 14.4113
ltoes -15.5059
99
root 1.5487 17.359 9.14382 -145.843 72.9354 -165.797
lowerback 8.08178 -2.79722 6.4522
upperback 1.3502 -3.11943 -0.179997
thorax -3.48223 -1.6057 -3.45997
lowerneck 0.66143 9.81361 -4.28472
upperneck -29.263 13.3935 -7.14006
head -9.11721 8.11266 -2.8644
rclavicle 1.00187e-013 3.81667e-014
rhumerus -45.2986 2.25731 -76.0319
rradius 35.4185
rwrist 15.3061
rhand 18.6415 -18.0531
rfingers 7.12502
rthumb 43.2675 -42.2038
lclavicle 1.00187e-013 3.81667e-014
lhumerus -55.1386 13.5043 66.1503
lradius 37.7103
lwrist -0.591783
lhand -7.7431 14.5584
lfingers 7.12502
lthumb 18.156 43.731
rfemur -33.3966 -0.190341 18.5214
rtibia 27.9132
rfoot -16.2949 1.19028
rtoes -10.3599
lfemur -38.5849 -0.210189 -11.0372
ltibia 36.859
lfoot -24.6574 14.3008
ltoes -15.7677
100
root 1.51914 17.2746 9.12469 -145.073 72.9469 -165.62
lowerback 8.26162 -2.85271 6.74615
upperback 1.43605 -3.15996 -0.344826
thorax -3.52241 -1.62815 -3.78634
lowerneck 0.991793 9.66472 -4.42463
upperneck -30.4302 13.2543 -7.12824
head -9.61755 8.11645 -2.94047
rclavicle 1.05356e-013 -2.06736e-014
rhumerus -45.3807 1.94051 -75.8462
rradius 35.224
rwrist 15.1418
rhand 18.7878 -18.0036
rfingers 7.12502
rthumb 43.4042 -42.1052
lclavicle 1.05356e-013 -2.06736e-014
lhumerus -55.7198 13.8015 65.2022
lradius 37.1498
lwrist -1.48676
lhand -7.63547 14.1684
lfingers 7.12502
lthumb 18.2596 43.3314
rfemur -35.4941 -1.38854 18.8372
rtibia 30.4609
rfoot -17.1836 2.33684
rtoes -10.2874
lfemur -40.3896 0.543015 -11.3381
ltibia 38.9071
lfoot -25.4369 13.9666
ltoes -16.025
101
root 1.49814 17.1876 9.10372 -144.555 72.9583 -165.651
lowerback 8.50926 -2.89125 7.05338
upperback 1.45377 -3.17419 -0.610022
thorax -3.67532 -1.64463 -4.22469
lowerneck 1.31009 9.501 -4.23017
upperneck -31.2434 13.0786 -7.17538
head -9.95961 8.05775 -3.05558
rclavicle 1.90833e-014 -2.14687e-014
rhumerus -45.5812 1.64654 -75.8571
rradius 34.9202
rwrist 14.8801
rhand 19.0163 -17.7363
rfingers 7.12502
rthumb 43.6177 -41.7603
lclavicle 1.90833e-014 -2.14687e-014
lhumerus -56.1782 14.1799 64.0729
lradius 36.3772
lwrist -2.87653
lhand -7.93963 14.1093
lfingers 7.12502
lthumb 17.9669 43.2994
rfemur -37.5182 -2.55613 19.115
rtibia 33.0544
rfoot -18.0998 3.38762
rtoes -10.2998
lfemur -42.0985 1.12298 -11.6492
ltibia 40.9612
lfoot -26.2916 13.6993
ltoes -16.3252
102
root 1.47845 17.0959 9.0915 -143.991 72.8907 -165.667
lowerback 8.70752 -2.96195 7.26582
upperback 1.4564 -3.23757 -0.755029
thorax -3.81139 -1.68373 -4.47979
lowerneck 1.39545 9.32054 -4.31857
upperneck -31.8767 12.9077 -7.04043
head -10.2356 8.0072 -3.04002
rclavicle -3.1408e-014 -1.98785e-014
rhumerus -45.5765 1.41641 -75.8671
rradius 34.4084
rwrist 14.7561
rhand 18.7606 -17.8663
rfingers 7.12502
rthumb 43.3788 -41.977
lclavicle -3.1408e-014 -1.98785e-014
lhumerus -56.65 14.716 63.0495
lradius 35.698
lwrist -4.12957
lhand -8.06568 13.8418
lfingers 7.12502
lthumb 17.8456 43.043
rfemur -39.5903 -3.48005 19.4212
rtibia 35.6829
rfoot -18.853 4.04944
rtoes -10.4826
lfemur -43.8782 1.75589 -11.9125
ltibia 43.023
lfoot -27.1628 13.291
ltoes -16.66
103
root 1.4562 16.9997 9.08927 -143.815 72.7461 -166.019
lowerback 9.09073 -3.03073 7.29455
upperback 1.39065 -3.29586 -0.836338
thorax -4.10856 -1.72488 -4.55579
lowerneck 1.29854 9.13112 -4.60245
upperneck -32.1473 12.7463 -6.68901
head -10.3754 7.94488 -2.88165
rclavicle 1.03368e-014 -5.56597e-015
rhumerus -45.4908 0.678631 -75.479
rradius 33.6501
rwrist 15.4222
rhand 18.5931 -17.8199
rfingers 7.12502
rthumb 43.2222 -41.9868
lclavicle 1.03368e-014 -5.56597e-015
lhumerus -56.9898 15.4639 61.9561
lradius 34.7956
lwrist -5.65052
lhand -8.36384 13.5502
lfingers 7.12502
lthumb 17.5587 42.7773
rfemur -41.6407 -4.31371 19.6876
rtibia 38.3563
rfoot -19.5103 4.49915
rtoes -10.601
lfemur -45.6235 2.33936 -12.2316
ltibia 45.0696
lfoot -28.0561 12.6889
ltoes -16.9146
104
root 1.43486 16.8929 9.09668 -143.572 72.45 -166.266
lowerback 9.49017 -3.15469 7.32563
upperback 1.35951 -3.42452 -0.891745
thorax -4.38702 -1.79842 -4.59521
lowerneck 0.992148 8.91908 -4.62466
upperneck -32.2275 12.5463 -6.46684
head -10.3696 7.84761 -2.77152
rclavicle 4.6118e-014 -1.27222e-014
rhumerus -45.2306 -0.13777 -75.2131
rradius 32.8889
rwrist 16.1395
rhand 18.5404 -17.8983
rfingers 7.12502
rthumb 43.173 -42.0828
lclavicle 4.6118e-014 -1.27222e-014
lhumerus -57.1389 16.1807 60.9319
lradius 34.0306
lwrist -6.88519
lhand -8.56119 13.2054
lfingers 7.12502
lthumb 17.3688 42.4493
rfemur -43.6929 -5.12152 20.1037
rtibia 41.0525
rfoot -20.1403 4.83138
rtoes -10.8391
lfemur -47.3851 2.8803 -12.4281
ltibia 47.124
lfoot -28.8629 12.1348
ltoes -17.1528
105
root 1.41595 16.7809 9.10853 -143.878 72.1328 -166.988
lowerback 9.9903 -3.21518 7.26642
upperback 1.26079 -3.47069 -0.964906
thorax -4.77782 -1.83584 -4.60788
lowerneck 0.896191 8.62177 -4.80973
upperneck -32.3749 12.2107 -6.17948
head -10.4481 7.69688 -2.62288
rclavicle 1.63003e-014 -2.70347e-014
rhumerus -45.1451 -1.19903 -74.8221
rradius 32.0451
rwrist 17.0535
rhand 18.1108 -17.8418
rfingers 7.12502
rthumb 42.7713 -42.168
lclavicle 1.63003e-014 -2.70347e-014
lhumerus -57.1179 17.0128 59.8782
lradius 33.0935
lwrist -8.50486
lhand -9.06343 13.242
lfingers 7.12502
lthumb 16.8854 42.528
rfemur -45.5934 -5.7221 20.283
rtibia 43.7698
rfoot -20.8985 4.83016
rtoes -11.2731
lfemur -49.0513 3.46585 -12.8182
ltibia 49.1725
lfoot -29.7724 11.3746
ltoes -17.5001
106
root 1.40116 16.669 9.11712 -143.87 71.7737 -167.271
lowerback 10.4459 -3.25756 7.3636
upperback 1.25932 -3.47914 -1.02869
thorax -5.04497 -1.84948 -4.70933
lowerneck 0.68995 8.32898 -4.67777
upperneck -32.5778 11.8709 -6.13505
head -10.4817 7.54458 -2.60027
rclavicle 1.82882e-014 1.90833e-014
rhumerus -44.8178 -2.86236 -74.2807
rradius 31.1644
rwrist 18.3957
rhand 17.7329 -17.9195
rfingers 7.12502
rthumb 42.4175 -42.3681
lclavicle 1.82882e-014 1.90833e-014
lhumerus -56.9252 17.9587 58.8919
lradius 32.435
lwrist -9.91854
lhand -9.30331 12.9835
lfingers 7.12502
lthumb 16.6545 42.289
rfemur -47.2947 -6.01159 20.4758
rtibia 46.4457
rfoot -21.698 4.54976
rtoes -11.7247
lfemur -50.5187 3.54536 -12.809
ltibia 51.231
lfoot -30.6141 11.2494
ltoes -17.8141
107
root 1.39229 16.5447 9.13244 -144.225 71.4358 -167.822
lowerback 10.9357 -3.34039 7.21222
upperback 1.26463 -3.56576 -1.06664
thorax -5.31809 -1.89577 -4.62882
lowerneck 0.594735 8.12307 -4.64198
upperneck -32.939 11.6677 -6.03464
head -10.6093 7.46364 -2.57498
rclavicle 3.57812e-015 -2.22639e-014
rhumerus -44.4678 -3.65538 -74.2187
rradius 30.4063
rwrist 18.8251
rhand 17.1849 -18.0391
rfingers 7.12502
rthumb 41.9042 -42.6612
lclavicle 3.57812e-015 -2.22639e-014
lhumerus -56.7018 18.9066 58.1268
lradius 31.916
lwrist -10.8883
lhand -9.79991 13.0331
lfingers 7.12502
lthumb 16.1763 42.3781
rfemur -48.8442 -6.17576 20.5602
rtibia 49.0612
rfoot -22.5584 3.99663
rtoes -12.514
lfemur -51.9102 3.76103 -12.9654
ltibia 53.2877
lfoot -31.2752 11.1665
ltoes -18.5019
108
root 1.38502 16.4182 9.14216 -144.173 71.2624 -167.945
lowerback 11.3198 -3.27764 7.06921
upperback 1.27117 -3.46436 -1.02837
thorax -5.50048 -1.84587 -4.50914
lowerneck 0.672312 7.81514 -4.73644
upperneck -33.5066 11.2816 -6.03272
head -10.8566 7.33238 -2.57449
rclavicle 7.67309e-014 3.73715e-014
rhumerus -44.0169 -4.81877 -73.8843
rradius 29.5273
rwrist 19.6611
rhand 16.6362 -18.1012
rfingers 7.12502
rthumb 41.3895 -42.8925
lclavicle 7.67309e-014 3.73715e-014
lhumerus -56.2967 19.9043 57.7079
lradius 31.6044
lwrist -11.4729
lhand -10.1185 13.1757
lfingers 7.12502
lthumb 15.8695 42.5454
rfemur -50.3264 -5.99933 20.5986
rtibia 51.5717
rfoot -23.4353 3.22387
rtoes -13.2316
lfemur -53.256 4.11507 -13.1192
ltibia 55.3239
lfoot -32.0524 11.1975
ltoes -18.9878
